<svg width="48" height="31" viewBox="0 0 48 31" fill="none" xmlns="http://www.w3.org/2000/svg">
<path d="M0.951397 7.73475C0.35621 6.93015 0 5.94164 0 4.86914C0 2.18037 2.21031 0 4.93644 0C7.48132 0 9.57439 1.89832 9.84312 4.33775C10.4987 10.1388 13.6965 15.2228 18.3895 18.4288C20.0073 19.534 22.2735 18.5084 22.4304 16.5818C22.6802 13.5146 21.8749 10.3846 20.0145 7.73475C19.4184 6.93015 19.0631 5.94164 19.0631 4.86914C19.0631 2.17949 21.2734 0 23.9995 0C26.7257 0 28.9369 2.18037 28.9369 4.86914C28.9369 5.94164 28.5807 6.93015 27.9855 7.73475C26.1242 10.3837 25.3207 13.5146 25.5696 16.5818C25.7265 18.5084 27.9927 19.534 29.6105 18.4288C34.3035 15.2228 37.5013 10.1379 38.1569 4.33687C38.4256 1.8992 40.5187 0 43.0627 0C45.7888 0 48 2.18037 48 4.86914C48 5.94164 47.6438 6.93015 47.0486 7.73475C43.7634 12.4103 43.7634 18.588 47.0486 23.2644C47.6447 24.069 48 25.0566 48 26.1291C48 28.8187 45.7888 30.9991 43.0627 30.9991C40.3365 30.9991 38.1262 28.8187 38.1262 26.1291C38.1262 25.0566 38.4824 24.069 39.0776 23.2644C40.782 20.8391 41.5999 18.0106 41.535 15.1972C41.4809 12.8868 38.7981 11.5712 36.9097 12.954C32.5134 16.1742 29.5357 21.0875 28.9062 26.6631C28.6366 29.1008 26.5444 31 23.9995 31C21.4547 31 19.3625 29.1017 19.0938 26.6622C18.4643 21.0875 15.4866 16.1742 11.0894 12.954C9.20104 11.5712 6.5191 12.8868 6.46499 15.1972C6.40006 18.0106 7.21799 20.8391 8.92149 23.2644C9.51758 24.069 9.87288 25.0566 9.87288 26.1291C9.87288 28.8187 7.66258 30.9991 4.93554 30.9991C2.2085 30.9991 0 28.8196 0 26.13C0 25.0575 0.35621 24.0699 0.951397 23.2653C4.23755 18.5889 4.23755 12.4111 0.951397 7.73563V7.73475Z" fill="#00FF1A"/>
</svg>
