<svg width="39" height="31" viewBox="0 0 39 31" fill="none" xmlns="http://www.w3.org/2000/svg">
<path d="M24.6333 10.8003C24.9667 10.8003 25.3133 10.8403 25.6667 10.9136C27.3 11.267 28.58 12.4603 29.0467 14.047C29.08 14.1536 29.1067 14.2603 29.1267 14.367C29.16 14.5403 29.1933 14.7136 29.2067 14.8803C29.22 15.027 29.2333 15.1736 29.2333 15.3136V15.3803C29.2333 15.5136 29.2267 15.6536 29.2067 15.7803C28.9667 18.0736 27.02 19.8803 24.64 19.8803C23.6333 19.8803 22.7 19.5536 21.94 18.9936C17.5267 15.9603 11.7 15.9603 7.3 18.9936C6.54 19.5536 5.6 19.8803 4.59333 19.8803C2.07333 19.8803 0.0266667 17.8536 0 15.3603C0 15.0336 0.04 14.707 0.113333 14.3603C0.493333 12.6203 1.82667 11.287 3.56667 10.907C4.93333 10.607 6.22 10.9203 7.22 11.6203C9.44 13.167 12.0267 13.947 14.6067 13.947C17.1867 13.947 19.7867 13.167 22 11.6203C22.7467 11.107 23.6467 10.7936 24.6267 10.7936L24.6333 10.8003Z" fill="#00FF1A"/>
<path d="M31.8267 0.00695085C32.16 0.00695085 32.5067 0.0469509 32.86 0.120284C34.4933 0.473618 35.7733 1.66695 36.24 3.25362C36.2733 3.36028 36.3 3.46695 36.32 3.57362C36.3533 3.74695 36.3867 3.92028 36.4 4.08695C36.4133 4.23362 36.4267 4.38028 36.4267 4.52028V4.58695C36.4267 4.72028 36.42 4.86028 36.4 4.98695C36.16 7.28028 34.2133 9.08695 31.8333 9.08695C30.8267 9.08695 29.8933 8.76028 29.1333 8.20028C24.72 5.16695 18.8933 5.16695 14.4933 8.20028C13.7333 8.76028 12.7933 9.08695 11.7867 9.08695C9.26667 9.08695 7.22 7.06028 7.19333 4.56695C7.19333 4.24028 7.23333 3.91362 7.30667 3.56695C7.68667 1.82695 9.02 0.493618 10.76 0.113618C12.1267 -0.186383 13.4133 0.126951 14.4133 0.826951C16.6333 2.37362 19.22 3.15362 21.8 3.15362C24.38 3.15362 26.98 2.37362 29.1933 0.826951C29.94 0.313618 30.84 0.000284185 31.82 0.000284185L31.8267 0.00695085Z" fill="#00FF1A"/>
<path d="M34.08 21.587C34.4133 21.587 34.76 21.627 35.1133 21.7003C36.7467 22.0536 38.0267 23.247 38.4933 24.8336C38.5267 24.9403 38.5533 25.047 38.5733 25.1536C38.6067 25.327 38.64 25.5003 38.6533 25.667C38.6667 25.8136 38.68 25.9603 38.68 26.1003V26.167C38.68 26.3003 38.6733 26.4403 38.6533 26.567C38.4133 28.8603 36.4667 30.667 34.0867 30.667C33.08 30.667 32.1467 30.3403 31.3867 29.7803C26.9733 26.747 21.1467 26.747 16.7467 29.7803C15.9867 30.3403 15.0467 30.667 14.04 30.667C11.52 30.667 9.47333 28.6403 9.44667 26.147C9.44667 25.8203 9.48667 25.4936 9.56 25.147C9.94 23.407 11.2733 22.0736 13.0133 21.6936C14.38 21.3936 15.6667 21.707 16.6667 22.4069C18.8867 23.9536 21.4733 24.7336 24.0533 24.7336C26.6333 24.7336 29.2333 23.9536 31.4467 22.4069C32.1933 21.8936 33.0933 21.5803 34.0733 21.5803L34.08 21.587Z" fill="#00FF1A"/>
</svg>
